<mxfile host="app.diagrams.net" modified="2021-10-28T00:52:29.988Z" agent="5.0 (Windows NT 10.0; Win64; x64) AppleWebKit/537.36 (KHTML, like Gecko) Chrome/95.0.4638.54 Safari/537.36" etag="2GvL08-Sv923rw5ft2Nd" version="15.6.2" type="github">
  <diagram id="C5RBs43oDa-KdzZeNtuy" name="Page-1">
    <mxGraphModel dx="868" dy="1594" grid="1" gridSize="10" guides="1" tooltips="1" connect="1" arrows="1" fold="1" page="1" pageScale="1" pageWidth="827" pageHeight="1169" math="0" shadow="0">
      <root>
        <mxCell id="WIyWlLk6GJQsqaUBKTNV-0" />
        <mxCell id="WIyWlLk6GJQsqaUBKTNV-1" parent="WIyWlLk6GJQsqaUBKTNV-0" />
        <mxCell id="3J5btlrPUrvOcyTK7o7c-10" value="" style="edgeStyle=orthogonalEdgeStyle;rounded=0;orthogonalLoop=1;jettySize=auto;html=1;" parent="WIyWlLk6GJQsqaUBKTNV-1" source="3J5btlrPUrvOcyTK7o7c-1" target="3J5btlrPUrvOcyTK7o7c-8" edge="1">
          <mxGeometry relative="1" as="geometry" />
        </mxCell>
        <mxCell id="3J5btlrPUrvOcyTK7o7c-1" value="start" style="strokeWidth=2;html=1;shape=mxgraph.flowchart.start_1;whiteSpace=wrap;" parent="WIyWlLk6GJQsqaUBKTNV-1" vertex="1">
          <mxGeometry x="130" y="75" width="100" height="50" as="geometry" />
        </mxCell>
        <mxCell id="3J5btlrPUrvOcyTK7o7c-27" style="edgeStyle=orthogonalEdgeStyle;rounded=0;orthogonalLoop=1;jettySize=auto;html=1;exitX=0;exitY=0.5;exitDx=0;exitDy=0;exitPerimeter=0;" parent="WIyWlLk6GJQsqaUBKTNV-1" source="3J5btlrPUrvOcyTK7o7c-4" edge="1">
          <mxGeometry relative="1" as="geometry">
            <mxPoint x="230" y="515" as="targetPoint" />
          </mxGeometry>
        </mxCell>
        <mxCell id="3J5btlrPUrvOcyTK7o7c-32" style="edgeStyle=orthogonalEdgeStyle;rounded=0;orthogonalLoop=1;jettySize=auto;html=1;exitX=1;exitY=0.5;exitDx=0;exitDy=0;exitPerimeter=0;" parent="WIyWlLk6GJQsqaUBKTNV-1" source="3J5btlrPUrvOcyTK7o7c-4" edge="1">
          <mxGeometry relative="1" as="geometry">
            <mxPoint x="440" y="535" as="targetPoint" />
          </mxGeometry>
        </mxCell>
        <mxCell id="3J5btlrPUrvOcyTK7o7c-4" value="b&amp;gt; max" style="strokeWidth=2;html=1;shape=mxgraph.flowchart.decision;whiteSpace=wrap;" parent="WIyWlLk6GJQsqaUBKTNV-1" vertex="1">
          <mxGeometry x="250" y="425" width="100" height="100" as="geometry" />
        </mxCell>
        <mxCell id="3J5btlrPUrvOcyTK7o7c-6" value="stop" style="strokeWidth=2;html=1;shape=mxgraph.flowchart.start_1;whiteSpace=wrap;" parent="WIyWlLk6GJQsqaUBKTNV-1" vertex="1">
          <mxGeometry x="165" y="685" width="110" height="60" as="geometry" />
        </mxCell>
        <mxCell id="3J5btlrPUrvOcyTK7o7c-13" value="" style="edgeStyle=orthogonalEdgeStyle;rounded=0;orthogonalLoop=1;jettySize=auto;html=1;" parent="WIyWlLk6GJQsqaUBKTNV-1" source="3J5btlrPUrvOcyTK7o7c-8" edge="1">
          <mxGeometry relative="1" as="geometry">
            <mxPoint x="175" y="285" as="targetPoint" />
          </mxGeometry>
        </mxCell>
        <mxCell id="3J5btlrPUrvOcyTK7o7c-8" value="input a. b, c" style="shape=parallelogram;perimeter=parallelogramPerimeter;whiteSpace=wrap;html=1;fixedSize=1;strokeWidth=2;" parent="WIyWlLk6GJQsqaUBKTNV-1" vertex="1">
          <mxGeometry x="115" y="145" width="120" height="70" as="geometry" />
        </mxCell>
        <mxCell id="3J5btlrPUrvOcyTK7o7c-20" value="" style="edgeStyle=orthogonalEdgeStyle;rounded=0;orthogonalLoop=1;jettySize=auto;html=1;" parent="WIyWlLk6GJQsqaUBKTNV-1" source="3J5btlrPUrvOcyTK7o7c-12" target="3J5btlrPUrvOcyTK7o7c-19" edge="1">
          <mxGeometry relative="1" as="geometry">
            <Array as="points">
              <mxPoint x="75" y="330" />
            </Array>
          </mxGeometry>
        </mxCell>
        <mxCell id="3J5btlrPUrvOcyTK7o7c-23" style="edgeStyle=orthogonalEdgeStyle;rounded=0;orthogonalLoop=1;jettySize=auto;html=1;exitX=1;exitY=0.5;exitDx=0;exitDy=0;" parent="WIyWlLk6GJQsqaUBKTNV-1" source="3J5btlrPUrvOcyTK7o7c-12" edge="1">
          <mxGeometry relative="1" as="geometry">
            <mxPoint x="300" y="425" as="targetPoint" />
          </mxGeometry>
        </mxCell>
        <mxCell id="3J5btlrPUrvOcyTK7o7c-12" value="a= max" style="rhombus;whiteSpace=wrap;html=1;strokeWidth=2;" parent="WIyWlLk6GJQsqaUBKTNV-1" vertex="1">
          <mxGeometry x="135" y="290" width="80" height="80" as="geometry" />
        </mxCell>
        <mxCell id="3J5btlrPUrvOcyTK7o7c-26" style="edgeStyle=orthogonalEdgeStyle;rounded=0;orthogonalLoop=1;jettySize=auto;html=1;" parent="WIyWlLk6GJQsqaUBKTNV-1" source="3J5btlrPUrvOcyTK7o7c-19" target="3J5btlrPUrvOcyTK7o7c-6" edge="1">
          <mxGeometry relative="1" as="geometry">
            <Array as="points">
              <mxPoint x="50" y="705" />
            </Array>
          </mxGeometry>
        </mxCell>
        <mxCell id="3J5btlrPUrvOcyTK7o7c-19" value="display a= max" style="shape=parallelogram;perimeter=parallelogramPerimeter;whiteSpace=wrap;html=1;fixedSize=1;strokeWidth=2;" parent="WIyWlLk6GJQsqaUBKTNV-1" vertex="1">
          <mxGeometry x="15" y="435" width="120" height="60" as="geometry" />
        </mxCell>
        <mxCell id="3J5btlrPUrvOcyTK7o7c-22" value="yes" style="text;html=1;resizable=0;autosize=1;align=center;verticalAlign=middle;points=[];fillColor=none;strokeColor=none;rounded=0;" parent="WIyWlLk6GJQsqaUBKTNV-1" vertex="1">
          <mxGeometry x="45" y="345" width="30" height="20" as="geometry" />
        </mxCell>
        <mxCell id="3J5btlrPUrvOcyTK7o7c-24" value="no" style="text;html=1;resizable=0;autosize=1;align=center;verticalAlign=middle;points=[];fillColor=none;strokeColor=none;rounded=0;" parent="WIyWlLk6GJQsqaUBKTNV-1" vertex="1">
          <mxGeometry x="295" y="345" width="30" height="20" as="geometry" />
        </mxCell>
        <mxCell id="3J5btlrPUrvOcyTK7o7c-31" style="edgeStyle=orthogonalEdgeStyle;rounded=0;orthogonalLoop=1;jettySize=auto;html=1;" parent="WIyWlLk6GJQsqaUBKTNV-1" source="3J5btlrPUrvOcyTK7o7c-28" edge="1">
          <mxGeometry relative="1" as="geometry">
            <mxPoint x="230" y="665" as="targetPoint" />
          </mxGeometry>
        </mxCell>
        <mxCell id="3J5btlrPUrvOcyTK7o7c-28" value="display b=max" style="shape=parallelogram;html=1;strokeWidth=2;perimeter=parallelogramPerimeter;whiteSpace=wrap;rounded=1;arcSize=12;size=0.037500000000000006;" parent="WIyWlLk6GJQsqaUBKTNV-1" vertex="1">
          <mxGeometry x="180" y="535" width="100" height="60" as="geometry" />
        </mxCell>
        <mxCell id="3J5btlrPUrvOcyTK7o7c-29" value="yes" style="text;html=1;align=center;verticalAlign=middle;resizable=0;points=[];autosize=1;strokeColor=none;fillColor=none;" parent="WIyWlLk6GJQsqaUBKTNV-1" vertex="1">
          <mxGeometry x="205" y="485" width="30" height="20" as="geometry" />
        </mxCell>
        <mxCell id="3J5btlrPUrvOcyTK7o7c-33" value="no" style="text;html=1;align=center;verticalAlign=middle;resizable=0;points=[];autosize=1;strokeColor=none;fillColor=none;" parent="WIyWlLk6GJQsqaUBKTNV-1" vertex="1">
          <mxGeometry x="445" y="485" width="30" height="20" as="geometry" />
        </mxCell>
        <mxCell id="3J5btlrPUrvOcyTK7o7c-37" style="edgeStyle=orthogonalEdgeStyle;rounded=0;orthogonalLoop=1;jettySize=auto;html=1;" parent="WIyWlLk6GJQsqaUBKTNV-1" source="3J5btlrPUrvOcyTK7o7c-34" edge="1">
          <mxGeometry relative="1" as="geometry">
            <mxPoint x="280" y="715" as="targetPoint" />
            <Array as="points">
              <mxPoint x="445" y="705" />
              <mxPoint x="280" y="705" />
            </Array>
          </mxGeometry>
        </mxCell>
        <mxCell id="3J5btlrPUrvOcyTK7o7c-34" value="display c= max" style="shape=parallelogram;html=1;strokeWidth=2;perimeter=parallelogramPerimeter;whiteSpace=wrap;rounded=1;arcSize=12;size=0.23;" parent="WIyWlLk6GJQsqaUBKTNV-1" vertex="1">
          <mxGeometry x="390" y="535" width="110" height="60" as="geometry" />
        </mxCell>
        <mxCell id="3J5btlrPUrvOcyTK7o7c-38" value="Text" style="text;html=1;resizable=0;autosize=1;align=center;verticalAlign=middle;points=[];fillColor=none;strokeColor=none;rounded=0;" parent="WIyWlLk6GJQsqaUBKTNV-1" vertex="1">
          <mxGeometry x="310" y="-40" width="40" height="20" as="geometry" />
        </mxCell>
      </root>
    </mxGraphModel>
  </diagram>
</mxfile>
